<?xml version="1.0" encoding="iso-8859-1"?>
<!-- Generator: Adobe Illustrator 16.0.4, SVG Export Plug-In . SVG Version: 6.00 Build 0)  -->
<!DOCTYPE svg PUBLIC "-//W3C//DTD SVG 1.1//EN" "http://www.w3.org/Graphics/SVG/1.1/DTD/svg11.dtd">
<svg version="1.1" id="Layer_1" xmlns="http://www.w3.org/2000/svg" xmlns:xlink="http://www.w3.org/1999/xlink" x="0px" y="0px"
	 width="512px" height="512px" viewBox="0 0 512 512" style="enable-background:new 0 0 512 512;" xml:space="preserve">
<rect id="background_1_" style="opacity:0;fill:#808080;" width="512" height="512"/>
<polygon style="fill:#1E88E8;" points="244,472 220,472 256,400 280,400 "/>
<polygon style="fill:#1E88E8;" points="292,472 268,472 304,400 328,400 "/>
<path id="inner_3_" style="fill:#FFF200;" d="M146.198,273.782c-22.262-12.082-36.092-35.28-36.092-60.542
	c0-37.958,30.881-68.839,68.839-68.839c30.885,0,58.182,20.8,66.381,50.583L232,204.534c0,0-18.911-5.672-48,14.466
	c-26,18-32.078,44.235-32.078,44.235L146.198,273.782z"/>
<path id="sun_2_" style="fill:#FFB200;" d="M51.584,152.326l11.058-19.152l34.855,20.125c-4.398,5.948-8.128,12.354-11.126,19.111
	L51.584,152.326z M191,72h-23v40.774c3-0.383,7.658-0.577,11.238-0.577c3.76,0,7.762,0.212,11.762,0.633V72z M119.313,131.619
	c5.982-4.368,12.412-8.058,19.18-11.011l-20.202-34.99L99.14,96.675L119.313,131.619z M78.286,224c-0.387-4-0.583-7.198-0.583-10.8
	c0-3.735,0.21-7.2,0.626-11.2H39v22H78.286z M259.275,96.674l-19.153-11.058l-20.307,35.176c6.763,2.987,13.176,6.705,19.131,11.092
	L259.275,96.674z M62.642,293.309l34.649-20.006c-4.38-5.965-8.087-12.385-11.062-19.148l-34.645,20.002L62.642,293.309z
	 M151.922,263.235c-17.743-9.629-29.816-28.429-29.816-49.995c0-31.341,25.498-56.839,56.839-56.839
	c26.125,0,48.19,17.717,54.812,41.768l17.095-19.829c-12.98-26.637-40.336-45.035-71.906-45.035
	c-44.077,0-79.936,35.859-79.936,79.936c0,25.283,11.799,47.864,30.181,62.522L151.922,263.235z"/>
<path id="dark_cloud_inner_2_" style="fill:#E6E7E8;" d="M166.7,364c-27.001,0-48.968-22.231-48.968-49.559
	c0-23.384,16.143-43.03,37.762-48.164c5.176-34.57,35.054-61.167,71.023-61.167c3.874,0,7.71,0.305,11.484,0.909
	c12.396-35.859,46.497-60.771,85.347-60.771c49.792,0,90.301,40.508,90.301,90.3c0,3.164-0.165,6.324-0.494,9.465
	c24.222,8.037,41.776,31.425,41.776,58.005c0,33.625-27.091,60.981-60.391,60.981H166.7z"/>
<path id="dark_cloud_1_" style="fill:#939598;" d="M323.348,157.249c43.244,0,78.301,35.056,78.301,78.3
	c0,6.455-0.786,12.725-2.258,18.727c24.446,2.433,43.54,23.652,43.54,48.743c0,26.726-21.665,48.981-48.391,48.981H166.7
	c-20.418,0-36.968-17.139-36.968-37.559c0-20.416,16.55-37.471,36.968-37.471c0-33.034,26.78-59.86,59.816-59.86
	c7.009,0,13.732,1.194,19.984,3.41C253.518,184.479,285.254,157.249,323.348,157.249 M323.348,134.153
	c-40.561,0-76.51,24.173-92.547,59.925c-1.423-0.073-2.853-0.109-4.284-0.109c-39.058,0-71.894,27.145-80.633,63.56
	c-22.892,8.542-39.249,30.88-39.249,56.864C106.635,347.74,133.58,375,166.7,375h227.84c39.418,0,71.487-32.385,71.487-72.029
	c0-17.82-6.581-35.015-18.531-48.294c-6.481-7.204-14.231-12.969-22.773-16.986c0.015-0.703,0.021-1.421,0.021-2.124
	C424.744,179.656,379.258,134.153,323.348,134.153L323.348,134.153z"/>
</svg>
